<?xml version="1.0" encoding="utf-8"?>
<!-- Generator: Adobe Illustrator 18.0.0, SVG Export Plug-In . SVG Version: 6.00 Build 0)  -->
<!DOCTYPE svg PUBLIC "-//W3C//DTD SVG 1.1//EN" "http://www.w3.org/Graphics/SVG/1.1/DTD/svg11.dtd">
<svg version="1.1" xmlns="http://www.w3.org/2000/svg" xmlns:xlink="http://www.w3.org/1999/xlink" x="0px" y="0px"
	 viewBox="0 0 48 48" enable-background="new 0 0 48 48" xml:space="preserve">
<g id="Camada_2">
	<path fill="#FFFFFF" d="M25.2,15.9H6c-0.5,0-1-0.4-1-1v-4.2c0-0.5,0.4-1,1-1h19.2c0.5,0,1,0.4,1,1v4.2
		C26.2,15.5,25.7,15.9,25.2,15.9z"/>
	<path fill="#FFFFFF" d="M25.2,28.1H6c-0.5,0-1-0.4-1-1V23c0-0.5,0.4-1,1-1h19.2c0.5,0,1,0.4,1,1v4.1C26.2,27.7,25.7,28.1,25.2,28.1
		z"/>
	<path fill="#FFFFFF" d="M14.5,40.4H6c-0.5,0-1-0.4-1-1v-4.2c0-0.5,0.4-1,1-1h8.5c0.5,0,1,0.4,1,1v4.2
		C15.5,39.9,15.1,40.4,14.5,40.4z"/>
</g>
<g id="Camada_3">
	<ellipse fill="#FFFFFF" cx="24.5" cy="40.3" rx="6.9" ry="4.3"/>
	<path fill="#FFFFFF" d="M40.7,6L28.7,9c-0.4,0.1-0.6,0.5-0.5,0.9l1.4,5.8c0.1,0.4,0.5,0.6,0.9,0.5l12-2.9c0.4-0.1,0.6-0.5,0.5-0.9
		l-1.4-5.8C41.5,6.2,41.1,5.9,40.7,6z"/>
	<polyline fill="#FFFFFF" points="31.3,40.3 31.3,15 28.2,9.8 28.2,36.9 	"/>
</g>
</svg>
