<?xml version="1.0" encoding="utf-8"?>
<!-- Generator: Adobe Illustrator 18.0.0, SVG Export Plug-In . SVG Version: 6.00 Build 0)  -->
<!DOCTYPE svg PUBLIC "-//W3C//DTD SVG 1.1//EN" "http://www.w3.org/Graphics/SVG/1.1/DTD/svg11.dtd">
<svg version="1.1" id="Camada_1" xmlns="http://www.w3.org/2000/svg" xmlns:xlink="http://www.w3.org/1999/xlink" x="0px" y="0px"
	 viewBox="0 0 48 48" enable-background="new 0 0 48 48" xml:space="preserve">
<path d="M17.8,16.4"/>
<path d="M15.9,17.8h-4.1c-0.8,0-1.5,0.7-1.5,1.5v9.2c0,0.8,0.7,1.5,1.5,1.5h4.1l4.5,4.1c1.5,1.5,4.1,0.5,4.1-1.7v-17
	c0-2.1-2.6-3.2-4.1-1.7L15.9,17.8z"/>
<g>
	<path d="M38.6,28.4l-0.9,0.9c-0.1,0.1-0.4,0.1-0.5,0l-9.4-9.4c-0.1-0.1-0.1-0.4,0-0.5l0.9-0.9c0.1-0.1,0.4-0.1,0.5,0l9.4,9.4
		C38.7,28.1,38.7,28.3,38.6,28.4z"/>
</g>
<g>
	<path d="M38.6,19.9l-9.4,9.4c-0.1,0.1-0.4,0.1-0.5,0l-0.9-0.9c-0.1-0.1-0.1-0.4,0-0.5l9.4-9.4c0.1-0.1,0.4-0.1,0.5,0l0.9,0.9
		C38.7,19.5,38.7,19.7,38.6,19.9z"/>
</g>
</svg>
