<?xml version="1.0" encoding="utf-8"?>
<!-- Generator: Adobe Illustrator 18.0.0, SVG Export Plug-In . SVG Version: 6.00 Build 0)  -->
<!DOCTYPE svg PUBLIC "-//W3C//DTD SVG 1.1//EN" "http://www.w3.org/Graphics/SVG/1.1/DTD/svg11.dtd">
<svg version="1.1" id="Camada_1" xmlns="http://www.w3.org/2000/svg" xmlns:xlink="http://www.w3.org/1999/xlink" x="0px" y="0px"
	 viewBox="0 0 48 48" enable-background="new 0 0 48 48" xml:space="preserve">
<path d="M17.8,16.4"/>
<g>
	<path d="M28.7,26.8l-0.2-0.4c-0.1-0.3,0-0.7,0.3-0.9c0.4-0.4,0.7-0.9,0.7-1.5s-0.2-1.1-0.7-1.5c-0.3-0.2-0.4-0.6-0.3-0.9l0.2-0.4
		c0.2-0.5,0.8-0.6,1.1-0.4c1,0.7,1.6,1.9,1.6,3.2s-0.6,2.5-1.6,3.2C29.5,27.5,28.9,27.3,28.7,26.8z"/>
</g>
<g>
	<path d="M31.7,31.8l-0.2-0.4c-0.2-0.4,0-0.8,0.3-1c2.4-1.3,3.8-3.6,3.8-6.4s-1.5-5.2-3.8-6.4c-0.4-0.2-0.5-0.6-0.3-1l0.2-0.4
		c0.2-0.4,0.7-0.6,1.1-0.4c3,1.6,4.9,4.7,4.9,8.2s-1.9,6.6-4.9,8.2C32.4,32.4,31.8,32.2,31.7,31.8z"/>
</g>
<g>
	<path d="M34.1,37.9L34,37.5c-0.2-0.4,0-0.8,0.4-1c4.9-2.3,7.8-7,7.8-12.5c0-5.4-3-10.2-7.8-12.5c-0.4-0.2-0.6-0.6-0.4-1l0.2-0.4
		c0.2-0.4,0.6-0.6,1-0.4c5.6,2.6,9,8,9,14.3s-3.4,11.7-9,14.3C34.8,38.5,34.3,38.3,34.1,37.9z"/>
</g>
<path d="M15.9,17.8h-4.1c-0.8,0-1.5,0.7-1.5,1.5v9.2c0,0.8,0.7,1.5,1.5,1.5h4.1l4.5,4.1c1.5,1.5,4.1,0.5,4.1-1.7V15.4
	c0-2.1-2.6-3.2-4.1-1.7L15.9,17.8z"/>
</svg>
